<svg xmlns="http://www.w3.org/2000/svg" viewBox="0 0 315 315"><defs><style>.cls-1{fill:#324a5e;}.cls-2{fill:#f6f6f6;}.cls-3{fill:#2b3b4e;}.cls-4{fill:#2c9984;}.cls-5{fill:#84dbff;}.cls-6{fill:#4cdbc4;}.cls-7{fill:#f9b54c;}.cls-8{fill:#ffd05b;}.cls-9{fill:#ff7058;}.cls-10{fill:#f1543f;}.cls-11{fill:#e6e9ee;}</style></defs><g id="Layer_1" data-name="Layer 1"><path class="cls-1" d="M271.3,10H21.8A11.82,11.82,0,0,0,10,21.8V209.7a11.82,11.82,0,0,0,11.8,11.8H271.2A11.82,11.82,0,0,0,283,209.7V21.8A11.67,11.67,0,0,0,271.3,10Z" transform="translate(-10 -10)"/></g><g id="Layer_13" data-name="Layer 13"><path class="cls-2" d="M251.8,33.6H41.3a7.6,7.6,0,0,0-7.6,7.6v149a7.6,7.6,0,0,0,7.6,7.6H251.9a7.6,7.6,0,0,0,7.6-7.6V41.2A7.68,7.68,0,0,0,251.8,33.6Z" transform="translate(-10 -10)"/></g><g id="Layer_12" data-name="Layer 12"><polygon class="cls-3" points="195.5 238.2 185.8 211.5 87.3 211.5 77.6 238.2 59.3 238.2 59.3 253.3 72 253.3 201.1 253.3 213.8 253.3 213.8 238.2 195.5 238.2"/></g><g id="Layer_11" data-name="Layer 11"><path class="cls-4" d="M323.1,325H232.3a1.9,1.9,0,0,1-1.9-1.9V191.7a1.9,1.9,0,0,1,1.9-1.9h90.8a1.9,1.9,0,0,1,1.9,1.9V323.2A1.82,1.82,0,0,1,323.1,325Z" transform="translate(-10 -10)"/></g><g id="Layer_2" data-name="Layer 2"><rect class="cls-4" x="109.6" y="151.6" width="53.9" height="25.3"/><rect class="cls-4" x="39.6" y="73.7" width="53.9" height="25.3"/><rect class="cls-4" x="179.5" y="73.7" width="53.9" height="25.3"/><rect class="cls-4" x="109.6" y="73.7" width="53.9" height="25.3"/></g><g id="Layer_3" data-name="Layer 3"><rect class="cls-5" x="179.5" y="151.6" width="53.9" height="25.3"/></g><g id="Layer_4" data-name="Layer 4"><rect class="cls-6" x="39.6" y="151.6" width="53.9" height="25.3"/></g><g id="Layer_5" data-name="Layer 5"><rect class="cls-7" x="93.5" y="112.6" width="139.9" height="25.3"/></g><g id="Layer_6" data-name="Layer 6"><rect class="cls-8" x="39.6" y="112.6" width="33.6" height="25.3"/></g><g id="Layer_7" data-name="Layer 7"><rect class="cls-9" x="93.5" y="34.7" width="139.9" height="25.3"/></g><g id="Layer_8" data-name="Layer 8"><rect class="cls-10" x="39.6" y="34.7" width="33.6" height="25.3"/></g><g id="Layer_9" data-name="Layer 9"><rect class="cls-11" x="233.5" y="295.9" width="17.8" height="8.8"/><rect class="cls-11" x="284.2" y="295.9" width="17.8" height="8.8"/><rect class="cls-6" x="233.5" y="192.8" width="68.5" height="92.9"/></g><g id="Layer_10" data-name="Layer 10"><circle class="cls-1" cx="267.8" cy="300.3" r="9"/></g></svg>