<svg xmlns="http://www.w3.org/2000/svg" viewBox="0 0 492.89 499.61"><defs><style>.cls-1{fill:#fff;}</style></defs><g id="Layer_7" data-name="Layer 7"><polygon class="cls-1" points="244.12 0 152.65 96.29 340.42 96.29 244.12 0"/></g><g id="Layer_6" data-name="Layer 6"><polygon class="cls-1" points="248.77 499.61 340.59 403.63 152.81 402.98 248.77 499.61"/></g><g id="Layer_5" data-name="Layer 5"><polygon class="cls-1" points="317.15 239.93 318.75 188.58 302.7 188.58 267.4 219.07 224.06 219.07 224.06 145.24 243.32 122.78 277.02 122.78 342.83 177.34 365.3 177.34 366.9 324.99 344.43 324.99 278.63 377.95 243.32 377.95 224.06 358.7 225.67 276.85 264.19 276.85 301.1 313.76 317.15 313.76 317.15 260.8 174.31 260.8 174.31 239.93 317.15 239.93"/></g><g id="Layer_4" data-name="Layer 4"><path class="cls-1" d="M166.21,134.59l-20.59-13L9.55,253.14l136.09,138,20.57-14.18,20.53-14.2L190.66,150ZM42.2,256.28l64.4-52L81.45,258l28.45,55.47Z" transform="translate(-9.55 -5.39)"/></g><g id="Layer_3" data-name="Layer 3"><path class="cls-1" d="M371,126.81l-1,261.35L502.45,256.89Zm45.77,75.42,55.09,54.52-57.33,55,26.12-55.22Z" transform="translate(-9.55 -5.39)"/></g></svg>