<svg xmlns="http://www.w3.org/2000/svg" viewBox="0 0 219.8 315"><defs><style>.cls-1{fill:#b9b9ba;}.cls-2{fill:#54c0eb;}.cls-3{fill:#324a5e;}.cls-4{fill:#2b3b4e;}.cls-5{fill:#fff;}.cls-6{fill:#f1543f;}</style></defs><g id="Layer_1" data-name="Layer 1"><path class="cls-1" d="M274.9,325H60.1a2.48,2.48,0,0,1-2.5-2.5V12.5A2.48,2.48,0,0,1,60.1,10H274.9a2.48,2.48,0,0,1,2.5,2.5v310A2.48,2.48,0,0,1,274.9,325Z" transform="translate(-57.6 -10)"/></g><g id="Layer_6" data-name="Layer 6"><rect class="cls-2" y="39.7" width="219.7" height="213.9"/></g><g id="Layer_5" data-name="Layer 5"><path class="cls-3" d="M199.2,40.4H135.9a2.11,2.11,0,0,1-2.1-2.1V26.2a2.11,2.11,0,0,1,2.1-2.1h63.3a2.11,2.11,0,0,1,2.1,2.1V38.3A2.18,2.18,0,0,1,199.2,40.4Z" transform="translate(-57.6 -10)"/><circle class="cls-3" cx="109.9" cy="286.8" r="20.7"/></g><g id="Layer_4" data-name="Layer 4"><path class="cls-4" d="M167.5,301.7a4.9,4.9,0,1,1,4.9-4.9A4.91,4.91,0,0,1,167.5,301.7Z" transform="translate(-57.6 -10)"/></g><g id="Layer_3" data-name="Layer 3"><circle class="cls-5" cx="109.9" cy="146.7" r="61.2"/></g><g id="Layer_2" data-name="Layer 2"><polygon class="cls-6" points="81 173 53.4 146.7 81 120.4 89.1 128.9 70.5 146.7 89.1 164.4 81 173"/><polygon class="cls-6" points="138.8 173 130.7 164.4 149.3 146.7 130.7 128.9 138.8 120.4 166.4 146.7 138.8 173"/><rect class="cls-6" x="122.04" y="150.76" width="90.9" height="11.8" transform="translate(-97.39 244.79) rotate(-68.42)"/></g></svg>